<svg width="90" height="26" viewBox="0 0 90 26" fill="none" xmlns="http://www.w3.org/2000/svg">
<path d="M37.4914 0.740526H32.5201L26.3061 15.7355L25.5811 0.740526H20.1956L22.0598 25.0389H27.2382L33.8665 9.71559L36.0414 25.0389H41.3233L49.7123 0.740526H44.3268L39.5627 15.7355L37.4914 0.740526Z" fill="black"/>
<path d="M53.855 25.1483L57.0656 0.84997H51.5766L48.2624 25.1483H53.855Z" fill="black"/>
<path d="M67.5259 0.740526H60.2762L57.0656 25.0389H62.4511L64.1082 12.1235C63.7975 18.5812 66.6974 25.0389 73.5328 25.0389H73.9471L74.6721 19.7852H74.3614C73.3257 19.7852 72.3936 19.5663 71.565 18.9096C70.7365 18.2529 70.1151 17.3772 69.9079 16.3922V16.2827H70.0115C71.2543 15.9544 72.3936 15.4071 73.4292 14.5315C74.3614 13.6559 75.0863 12.4519 75.6041 11.2479C76.0184 9.9345 76.122 8.62107 75.9149 7.1982C75.7077 5.88477 75.1899 4.57135 74.3614 3.58628C73.5328 2.60121 72.4971 1.83505 71.2543 1.39724C70.0115 0.95943 68.7687 0.740526 67.5259 0.740526ZM70.3222 8.94943C69.9079 12.233 66.4902 12.1235 64.0046 12.1235L64.8332 5.77532C66.9045 5.77532 70.84 5.77532 70.3222 8.94943Z" fill="black"/>
<path d="M82.7503 19.6757V19.5663L85.2359 0.740526H79.8504L76.6398 25.0389H89.275L90 19.6757H82.7503Z" fill="black"/>
<path d="M10.2532 5.5564C11.5995 5.44695 12.8424 5.77531 14.0852 6.21312C15.328 6.76038 16.4672 7.52654 17.3993 8.51161L18.0207 2.27284C15.7422 0.959418 13.1531 0.302706 10.5639 0.412158C4.55696 0.412158 1.44994 3.69572 1.55351 8.18325C1.55351 11.3574 4.4534 13.3275 7.35328 14.6409L8.69966 15.1882C11.3924 16.1732 12.1174 16.9394 12.0138 18.1434C11.9102 19.4568 9.94246 20.1135 8.18182 20.1135C6.73188 20.1135 5.3855 19.7852 4.14269 19.1285C2.89989 18.4717 1.76064 17.5961 0.828539 16.5016L0 23.0687C2.38205 24.7105 5.17837 25.5861 7.97469 25.3672C13.6709 25.3672 18.0207 22.0837 17.9172 17.3772C17.9172 14.2031 16.5708 12.4519 13.0495 10.9196C13.0495 10.9196 11.3924 10.1534 10.8746 9.93448C8.69966 9.38722 7.35328 8.73051 7.35328 7.63599C7.24971 6.43202 8.38895 5.5564 10.2532 5.5564Z" fill="black"/>
</svg>
